# xmcd
#
# Track frame offsets:
#  150
#  16995
#  35074
#  48872
#  65497
#  84401
#  97948
#  117663
#  132623
#  147023
#
# Disc length: 2136 seconds
#
# Revision: 0
# Processed by: cddbd v1.5.1PL2 Copyright (c) Steve Scherf et al.
# Submitted via: Collectorz.com_Music_Collector 6.9
#
DISCID=8708560a
DTITLE=Emmylou Harris - Songs Of The West
DYEAR=1994
DGENRE=Country
TTITLE0=I'll Be Your San Antone Rose
TTITLE1=Even Cowgirls Get The Blues
TTITLE2=Amarillo
TTITLE3=The Sweetheart Of The Rodeo
TTITLE4=Queen Of The Silver Dollar
TTITLE5=One Paper Kid
TTITLE6=Rose Of Cimarron
TTITLE7=Spanish Is A Loving Tongue
TTITLE8=Cattle Call
TTITLE9=Montana Cowgirl
EXTD=
EXTT0=
EXTT1=
EXTT2=
EXTT3=
EXTT4=
EXTT5=
EXTT6=
EXTT7=
EXTT8=
EXTT9=
PLAYORDER=
